<?xml version="1.0" standalone="no"?>
<!DOCTYPE svg PUBLIC "-//W3C//DTD SVG 20010904//EN"
 "http://www.w3.org/TR/2001/REC-SVG-20010904/DTD/svg10.dtd">
<svg version="1.0" xmlns="http://www.w3.org/2000/svg"
 width="1136.000000pt" height="666.000000pt" viewBox="0 0 1136.000000 666.000000"
 preserveAspectRatio="xMidYMid meet">
<metadata>
Created by potrace 1.16, written by Peter Selinger 2001-2019
</metadata>
<g transform="translate(0.000000,666.000000) scale(0.100000,-0.100000)"
fill="#000000" stroke="none">
<path d="M0 3330 l0 -3330 5680 0 5680 0 0 3330 0 3330 -5680 0 -5680 0 0
-3330z m11330 3090 l0 -190 -5650 0 -5650 0 0 190 0 190 5650 0 5650 0 0 -190z
m-10242 -6012 l-3 -373 -525 0 -525 0 -3 373 -2 372 530 0 530 0 -2 -372z
m8432 -3 l0 -375 -4195 0 -4195 0 0 375 0 375 4195 0 4195 0 0 -375z m1808 3
l-3 -373 -880 0 -880 0 -3 373 -2 372 885 0 885 0 -2 -372z"/>
</g>
</svg>
