<?xml version="1.0" standalone="no"?>
<!DOCTYPE svg PUBLIC "-//W3C//DTD SVG 20010904//EN"
 "http://www.w3.org/TR/2001/REC-SVG-20010904/DTD/svg10.dtd">
<svg version="1.0" xmlns="http://www.w3.org/2000/svg"
 width="1280.000000pt" height="699.000000pt" viewBox="0 0 1280.000000 699.000000"
 preserveAspectRatio="xMidYMid meet">
<metadata>
Created by potrace 1.16, written by Peter Selinger 2001-2019
</metadata>
<g transform="translate(0.000000,699.000000) scale(0.100000,-0.100000)"
fill="#000000" stroke="none">
<path d="M0 3495 l0 -3495 6400 0 6400 0 0 3495 0 3495 -6400 0 -6400 0 0
-3495z m1220 -3040 l0 -415 -590 0 -590 0 0 415 0 415 590 0 590 0 0 -415z
m9500 0 l0 -415 -4720 0 -4720 0 0 415 0 415 4720 0 4720 0 0 -415z m2040 0
l0 -415 -990 0 -990 0 0 415 0 415 990 0 990 0 0 -415z"/>
</g>
</svg>
