<svg version="1.2" xmlns="http://www.w3.org/2000/svg" viewBox="0 0 1920 2160" width="800" height="800">
	<title>2</title>
	<defs>
		<clipPath clipPathUnits="userSpaceOnUse" id="cp1">
			<path d="m1920 2160h-1920v-2160h1920z"/>
		</clipPath>
	</defs>
	<style>
		tspan { white-space:pre } 
		.s0 { fill: #000000 } 
		.t1 { font-size: 451px;fill: #ffffff;font-weight: 800;font-family: "Gotham Cond" } 
		.s2 { fill: #ffffff } 
	</style>
	<g id="Layer 1">
		<g id="&lt;Clip Group&gt;" clip-path="url(#cp1)">
			<g id="&lt;Group&gt;">
			</g>
			<g id="&lt;Group&gt;">
				<g id="2">
					<g id="&lt;Group&gt;">
						<g id="&lt;Group&gt;">
						</g>
					</g>
					<g id="&lt;Group&gt;">
					</g>
				</g>
				<g id="3">
					<g id="&lt;Group&gt;">
					</g>
					<g id="&lt;Group&gt;">
						<g id="&lt;Group&gt;">
						</g>
						<g id="&lt;Group&gt;">
						</g>
					</g>
				</g>
				<g id="&lt;Group&gt;">
				</g>
			</g>
			<path id="&lt;Path&gt;" class="s0" d="m1920 1620h-1920v-1080h1920z"/>
			<g id="&lt;Group&gt;">
			</g>
			<g id="&lt;Group&gt;">
			</g>
			<g id="&lt;Group&gt;">
			</g>
			<g id="&lt;Group&gt;">
				<g id="&lt;Group&gt;">
				</g>
				<g id="&lt;Group&gt;">
				</g>
				<g id="&lt;Group&gt;">
				</g>
			</g>
			<g id="&lt;Group&gt;">
			</g>
			<text id="$NFA
" style="transform: matrix(1,0,0,1,366.635,1217.724)" >
				<tspan x="0" y="0" class="t1">$NFA
</tspan>
			</text>
		</g>
		<g id="4">
			<g id="&lt;Group&gt;">
				<g id="&lt;Group&gt;">
					<path id="&lt;Compound Path&gt;" class="s2" d="m89 1734.5q-0.4-0.8-1-1.7c-1 0.6-1.7 1-2.6 1.6q0.1 0.1 0.1 0.1 0.3 0.6 0.6 1.1h3.6q-0.3-0.5-0.7-1.1zm-16 0.9q-0.4-0.4-0.8-0.9-0.9-0.8-1.6-1.8 0 0 0 0c-1.2-1.4-2.1-3-2.8-4.5l2.2 6.1c0.8 0.3 1.8 0.7 3 1.1zm18.2-17.9c-1.9-0.6-4.2-0.9-6.8-0.7-4.5-5.2-11.4-8.3-17.6-3.1q-1.3 1.1-2.1 2.2-0.5 0.6-0.8 1.2l3.5 9.9c-0.4-1.4-0.5-2.7-0.2-4q0-0.1 0-0.1c0.2-1.4 1-2.8 2.3-4.1 6.1-6.1 12.3-2.3 16 3.5 0.2-1.1 0.3-1.9 0.4-2.6 2-0.1 3.8 0.4 5.3 1.2q0.1 0.1 0.2 0.1 0.2 0.1 0.3 0.2 0.2 0.1 0.4 0.2 0.1 0.1 0.2 0.2v-3.7q-0.5-0.3-1.1-0.4z"/>
					<path id="&lt;Compound Path&gt;" class="s2" d="m91.8 1736.8h1.6v-1.3q-0.7 0.7-1.6 1.3zm0.5-18.9q-0.5-0.3-1.1-0.4v3.4q0.1 0.1 0.2 0.1 0.2 0.1 0.3 0.2 0.2 0.1 0.4 0.2 0.1 0.1 0.2 0.2 0.6 0.5 1.1 1.1v-4.4q-0.5-0.2-1.1-0.4zm-19.3 17.5q-0.4-0.4-0.8-0.9h-1l-0.6-1.8q0 0 0 0c-1.2-1.4-2.1-3-2.8-4.5q0-0.1 0-0.1l-0.4-1.1q0 0 0 0c-0.4-1.4-0.5-2.7-0.2-4q0-0.1 0-0.1l-2.5-7q-0.5 0.6-0.8 1.2-0.4 0.8-0.6 1.6l5.3 15.1q0.6 0.2 1.4 0.5c0.8 0.3 1.8 0.7 3 1.1zm16.7 0.2q-0.3-0.5-0.7-1.1h-3.5q0.3 0.6 0.6 1.1 0.3 0.6 0.6 1.2h3.6q-0.3-0.6-0.6-1.2z"/>
				</g>
				<g id="&lt;Group&gt;">
					<path id="&lt;Compound Path&gt;" class="s2" d="m153.2 1719.2q-1.7 3.8-3.8 6.8-0.1 1-0.1 2 0 0.8 0.1 1.6 1.3-1.6 2.5-3.3 2.5-3.8 4.3-8.6-0.7 0.2-1.4 0.5-0.9 0.4-1.6 1z"/>
				</g>
			</g>
			<g id="&lt;Group&gt;">
			</g>
			<g id="&lt;Group&gt;">
				<path id="&lt;Path&gt;" class="s2" d="m176.6 1719.7c-2-2.5-1.6-5.8-3.9-8.2-2.8-2.9-6.3-2.1-8.5-5.4h4.9c5.8 2.1 10.3 8.1 7.5 13.6z"/>
				<path id="&lt;Path&gt;" class="s2" d="m171.6 1720.7c-2.1-2-1.8-4.3-4.4-6-1.9-1.3-6-0.8-2.7-3.4 4.8-0.1 11.2 5.7 7.1 9.4z"/>
			</g>
			<g id="&lt;Group&gt;">
			</g>
			<g id="&lt;Group&gt;">
			</g>
			<g id="&lt;Group&gt;">
			</g>
		</g>
		<g id="&lt;Group&gt;">
			<g id="&lt;Group&gt;">
			</g>
			<g id="&lt;Group&gt;">
			</g>
			<g id="&lt;Group&gt;">
			</g>
		</g>
		<g id="&lt;Group&gt;">
			<g id="&lt;Group&gt;">
			</g>
		</g>
		<g id="&lt;Group&gt;">
		</g>
		<g id="&lt;Group&gt;">
		</g>
	</g>
</svg>