<?xml version="1.0" standalone="no"?>
<!DOCTYPE svg PUBLIC "-//W3C//DTD SVG 20010904//EN"
 "http://www.w3.org/TR/2001/REC-SVG-20010904/DTD/svg10.dtd">
<svg version="1.0" xmlns="http://www.w3.org/2000/svg"
 width="284.000000pt" height="188.000000pt" viewBox="0 0 284.000000 188.000000"
 preserveAspectRatio="xMidYMid meet">
<metadata>
Created by potrace 1.16, written by Peter Selinger 2001-2019
</metadata>
<g transform="translate(0.000000,188.000000) scale(0.100000,-0.100000)"
fill="#000000" stroke="none">
<path d="M681 1829 c-115 -22 -321 -109 -321 -134 0 -8 10 -22 23 -32 18 -15
22 -28 22 -80 0 -53 4 -66 31 -100 59 -74 143 -93 225 -50 56 30 89 85 89 148
0 35 4 49 17 53 14 6 12 11 -15 36 -38 34 -38 35 -12 91 36 79 30 86 -59 68z"/>
<path d="M1850 1821 c-50 -27 -73 -62 -77 -123 -14 -191 269 -218 294 -28 8
59 -27 123 -81 149 -52 26 -91 26 -136 2z"/>
<path d="M1852 1499 c-45 -9 -88 -52 -107 -108 -39 -115 -45 -510 -9 -586 16
-35 18 -36 60 -29 38 5 52 1 137 -45 52 -28 97 -51 99 -51 3 0 -6 44 -19 98
-27 107 -40 259 -27 309 l9 33 50 -41 c28 -22 82 -58 120 -79 39 -22 66 -40
61 -40 -5 0 -39 16 -74 36 -65 35 -65 35 -91 17 -14 -11 -35 -37 -45 -58 -17
-34 -18 -45 -8 -93 6 -31 21 -66 33 -78 28 -29 80 -47 124 -42 19 2 33 2 31 0
-21 -21 -134 -92 -145 -92 -9 0 -54 25 -100 55 -99 65 -125 74 -160 53 -40
-22 -30 -55 36 -118 32 -30 54 -52 49 -48 -22 17 -25 3 -23 -114 1 -94 -4
-150 -22 -237 -33 -164 -16 -211 76 -211 46 0 76 19 91 57 11 29 56 252 67
333 l6 45 -43 18 c-24 9 -63 35 -88 58 -44 40 -44 40 -5 11 22 -16 50 -34 62
-41 32 -16 93 -13 132 8 l34 18 30 -34 c17 -19 64 -57 104 -84 40 -27 73 -53
73 -58 0 -5 -7 -14 -15 -21 -20 -17 -19 -58 2 -62 11 -2 -1 -17 -42 -52 -86
-74 -102 -137 -42 -176 32 -22 461 -16 495 6 47 31 48 95 1 119 -18 10 -59 15
-119 15 l-91 0 61 59 c57 56 60 61 60 107 0 30 -7 61 -19 79 -28 45 -287 317
-317 333 -16 8 -41 12 -61 9 l-34 -6 22 30 c26 37 37 112 19 134 -7 8 -22 16
-34 17 -11 0 -1 4 24 7 37 5 46 10 54 34 13 35 3 52 -55 95 -169 126 -200 162
-239 276 -37 109 -100 154 -188 135z"/>
<path d="M362 1399 c-29 -14 -56 -40 -78 -73 -36 -55 -101 -197 -110 -243 l-6
-29 139 -32 c76 -18 145 -32 154 -32 10 0 37 41 74 115 l59 115 242 0 c210 0
243 -2 248 -16 4 -10 16 -14 38 -12 28 3 37 10 59 55 15 29 29 50 32 47 11
-11 45 7 50 26 4 17 14 20 55 20 52 0 79 17 68 45 -8 22 -291 22 -300 0 -5
-13 -44 -15 -266 -15 -251 0 -262 1 -290 21 -43 32 -115 35 -168 8z"/>
<path d="M140 961 c-15 -81 -8 -126 25 -175 13 -20 40 -94 60 -166 l36 -129
-90 -169 c-52 -96 -91 -180 -91 -196 0 -31 16 -65 39 -83 19 -15 85 -17 111
-3 17 9 220 370 234 415 3 11 -2 51 -13 88 -10 37 -16 67 -13 67 2 0 20 -9 38
-21 l34 -21 0 -240 0 -240 29 -29 c39 -39 100 -41 136 -4 l25 24 0 294 c0 345
14 308 -147 402 -110 64 -111 65 -93 140 5 22 7 41 5 44 -6 6 -277 71 -297 71
-12 0 -19 -16 -28 -69z"/>
</g>
</svg>
