<?xml version="1.0" standalone="no"?>
<!DOCTYPE svg PUBLIC "-//W3C//DTD SVG 20010904//EN"
 "http://www.w3.org/TR/2001/REC-SVG-20010904/DTD/svg10.dtd">
<svg version="1.0" xmlns="http://www.w3.org/2000/svg"
 width="359.000000pt" height="202.000000pt" viewBox="0 0 359.000000 202.000000"
 preserveAspectRatio="xMidYMid meet">
<metadata>
Created by potrace 1.16, written by Peter Selinger 2001-2019
</metadata>
<g transform="translate(0.000000,202.000000) scale(0.100000,-0.100000)"
fill="#000000" stroke="none">
<path d="M0 1010 l0 -1010 1795 0 1795 0 0 1010 0 1010 -1795 0 -1795 0 0
-1010z m890 972 c0 -5 -7 -17 -15 -28 -18 -24 -19 -75 -2 -97 6 -9 35 -26 62
-38 l50 -23 -135 -12 c-315 -29 -310 -29 -310 -5 0 11 -10 29 -22 41 -13 12
-18 23 -12 28 5 5 52 21 105 37 54 15 132 45 175 66 81 38 104 45 104 31z
m1124 -86 c99 -41 113 -204 23 -268 -43 -31 -133 -32 -174 -2 -64 47 -82 159
-36 222 41 56 120 76 187 48z m766 -4 c100 -50 109 -206 16 -267 -72 -47 -182
-18 -216 57 -26 56 -25 94 3 148 25 51 72 80 127 80 19 0 51 -8 70 -18z
m-1905 -169 c-23 -123 -157 -183 -255 -113 -32 23 -78 106 -65 118 6 7 203 27
289 31 l38 1 -7 -37z m-16 -178 c15 -4 33 -12 41 -20 8 -7 39 -18 68 -25 50
-12 62 -10 178 20 101 27 129 31 149 22 29 -13 42 -54 27 -87 -11 -24 -27 -30
-204 -77 -89 -23 -106 -22 -235 9 l-23 5 0 -151 0 -151 -180 0 c-117 0 -180 4
-180 10 0 6 -13 1 -29 -11 -34 -25 -74 -20 -91 11 -6 12 -29 81 -51 155 -29
100 -37 139 -30 157 6 17 35 36 100 67 51 23 89 46 86 51 -3 5 8 13 25 17 34
9 311 7 349 -2z m1374 -1 c20 -7 30 -36 63 -177 16 -64 31 -111 35 -105 3 7
19 65 34 128 15 63 32 123 37 132 15 31 78 38 331 38 244 0 279 -4 299 -34 4
-6 8 -176 8 -377 0 -292 -3 -369 -14 -384 -15 -21 -70 -25 -89 -6 -9 8 -13 88
-17 279 -3 168 -9 267 -15 267 -7 0 -11 -213 -13 -614 -2 -554 -4 -616 -19
-633 -23 -25 -87 -24 -113 2 -19 19 -20 33 -20 331 l0 310 -27 -3 -28 -3 -5
-318 c-4 -268 -7 -319 -20 -327 -23 -14 -84 -12 -106 4 -18 14 -19 35 -24 628
-5 612 -5 613 -26 616 -11 2 -25 -3 -31 -10 -6 -7 -27 -81 -47 -164 -37 -150
-37 -151 -22 -211 33 -127 15 -157 -87 -146 -85 9 -94 26 -71 132 l17 81 -37
154 c-37 153 -51 184 -81 172 -13 -5 -15 -80 -15 -616 0 -597 0 -610 -20 -630
-26 -26 -90 -27 -113 -2 -15 16 -17 57 -19 328 l-3 309 -27 3 -28 3 0 -315 c0
-314 0 -315 -22 -330 -12 -9 -36 -16 -53 -16 -17 0 -41 7 -53 16 l-22 15 0
620 c0 492 -3 620 -12 617 -10 -4 -14 -70 -18 -271 -3 -158 -9 -270 -15 -275
-25 -24 -55 -23 -80 2 l-25 25 0 363 c0 200 4 368 8 374 22 33 45 35 319 30
149 -4 278 -9 286 -12z m-1728 -494 c9 -15 348 -13 362 1 24 24 43 2 43 -51 0
-43 -3 -50 -20 -50 -20 0 -20 -7 -20 -302 0 -324 -2 -340 -51 -367 -31 -17
-71 -9 -99 21 -19 21 -20 34 -20 335 0 306 0 313 -20 313 -20 0 -20 -7 -20
-305 0 -322 -3 -344 -47 -364 -36 -17 -59 -13 -90 13 l-28 24 -3 313 c-2 262
-5 315 -17 322 -15 8 -22 87 -8 100 10 10 31 8 38 -3z"/>
</g>
</svg>
