<svg version="1.2" xmlns="http://www.w3.org/2000/svg" viewBox="0 0 1920 2160" width="800" height="800">
	<title>2</title>
	<defs>
		<clipPath clipPathUnits="userSpaceOnUse" id="cp1">
			<path d="m1920 2160h-1920v-2160h1920z"/>
		</clipPath>
	</defs>
	<style>
		.s0 { fill: #000000 } 
		.s1 { fill: #ffffff } 
		.s2 { fill: #ffffff;stroke: #000000;stroke-miterlimit:10;stroke-width: 2 } 
	</style>
	<g id="Layer 1">
		<g id="&lt;Clip Group&gt;" clip-path="url(#cp1)">
			<g id="&lt;Group&gt;">
			</g>
			<g id="&lt;Group&gt;">
				<g id="2">
					<g id="&lt;Group&gt;">
						<g id="&lt;Group&gt;">
						</g>
					</g>
					<g id="&lt;Group&gt;">
					</g>
				</g>
				<g id="3">
					<g id="&lt;Group&gt;">
					</g>
					<g id="&lt;Group&gt;">
						<g id="&lt;Group&gt;">
						</g>
						<g id="&lt;Group&gt;">
						</g>
					</g>
				</g>
				<g id="&lt;Group&gt;">
				</g>
			</g>
			<path id="&lt;Path&gt;" class="s0" d="m1920 1620h-1920v-1080h1920z"/>
			<g id="&lt;Group&gt;">
			</g>
			<g id="&lt;Group&gt;">
			</g>
			<g id="&lt;Group&gt;">
			</g>
			<g id="&lt;Group&gt;">
				<g id="&lt;Group&gt;">
				</g>
				<g id="&lt;Group&gt;">
				</g>
				<g id="&lt;Group&gt;">
				</g>
			</g>
			<g id="&lt;Group&gt;">
			</g>
		</g>
		<g id="4">
			<g id="&lt;Group&gt;">
				<g id="&lt;Group&gt;">
				</g>
				<g id="&lt;Group&gt;">
				</g>
			</g>
			<g id="&lt;Group&gt;">
			</g>
			<g id="&lt;Group&gt;">
			</g>
			<g id="&lt;Group&gt;">
			</g>
			<g id="&lt;Group&gt;">
			</g>
			<g id="&lt;Group&gt;">
			</g>
		</g>
		<g id="&lt;Group&gt;">
			<g id="&lt;Group&gt;">
				<path id="&lt;Path&gt;" class="s1" d="m1167.6 1135.6q0 49.2 0 98.5c0 8.3-2.8 11.1-11 11.1-11.3 0-14-2.1-14-11.2 0-31.8-0.1-63.7 0.1-95.5 0-4.3-1.6-4.9-5.3-5-4-0.1-4.9 1.2-4.9 5 0.1 31.7 0.1 63.3 0.1 95 0 9-2.8 11.7-11.4 11.7-11.1 0-13.7-2.2-13.7-11.5 0-65.7 0-129.3-0.1-195-0.1-3.7-1.9-6-5.8-6.3-3.8-0.1-5.9 3.3-6.3 5.2-6.2 24.9-12.2 49.9-18.2 74.9-1.9 7.9-6.8 11.7-13.1 10.1-6.3-1.6-8.8-7.1-6.8-15.1q13.1-54.3 26.2-108.6c2.3-6.7 5.5-8.8 15-9.3 29.6-0.3 53.5-0.3 82.1-0.2 8.6 0 12.5 3.9 12.5 12.5q0 56.1 0 112.1c0 8-3.8 12.6-10.2 12.6-6.4 0.1-10.3-4.6-10.3-12.4-0.1-26 0-52-0.2-78 0-1.7-0.3-5.3-2.4-5.3-2 0-2.2 3.5-2.2 5.2-0.1 33.2-0.1 66.3-0.1 99.5z"/>
			</g>
			<g id="&lt;Group&gt;">
				<path id="&lt;Path&gt;" class="s1" d="m1038.8 1135.6q0 49.3 0 98.5c0 8.7-2.7 11.1-12.8 11.1-9.4 0-12.2-2.6-12.2-11.2-0.1-31.9-0.2-63.7 0-95.5 0.1-4.3-1.5-4.9-5.3-5-3.9-0.1-4.8 1.2-4.8 5 0.1 32 0.1 63.9 0.1 95.9 0 8.2-3 10.8-12.3 10.8-9.8 0-12.8-2.4-12.8-10.6 0-66 0-132-0.1-198 0-1.9 0.1-5.7-2.1-5.7-2.4 0-2.5 3.8-2.5 5.8-0.2 25.8-0.1 51.6-0.1 77.5 0 7.9-3.9 12.5-10.4 12.4-6.3 0-10.1-4.7-10.1-12.6q0-56.3 0-112.5c0-8.2 3.9-12.2 12-12.2 28.9 0 43.4 0 82.1 0.8 8.1 0.2 12.6 1.1 14.5 9.1q13.2 55.1 26.4 110.3c1.7 6.9-1.2 12.3-7.1 13.7-6.1 1.5-11.1-1.9-12.8-8.8-6.2-25.7-12.3-51.4-18.6-77.1-0.4-1.6-2.3-7.9-7.9-6.6-2.3 1.2-3.1 3.4-3.1 5-0.1 33.3-0.1 66.6-0.1 99.9z"/>
			</g>
			<g id="&lt;Group&gt;">
				<path id="&lt;Path&gt;" class="s1" d="m1137.6 929.8c34 0 34.1 52.1 0 52.1-34.1 0-34.1-52.2 0-52.1z"/>
			</g>
			<g id="&lt;Group&gt;">
				<path id="&lt;Path&gt;" class="s1" d="m1008.8 929.8c34.1 0 34 52.1-0.1 52.1-34 0-34-52.1 0.1-52.1z"/>
			</g>
		</g>
		<g id="&lt;Group&gt;">
			<g id="&lt;Group&gt;">
				<path id="&lt;Compound Path&gt;" fill-rule="evenodd" class="s2" d="m819.7 989.1q5.9 1.6 11.8 3.3c0.5 0.1 0.9 0.4 1.4 0.6-0.1 0.8-0.2 1.5-0.3 2.2 0.7 0.2 1.4 0.4 2 0.6 5.4 1.3 10.7 2.6 16.1 3.8 0.8 0.2 1.7 0.6 2.6 0.3 2.3-0.7 4.7-1.2 7-1.9q9.7-2.6 19.4-5.2 5-1.4 10-2.7c2.6-0.7 5.2-0.8 7.8 0.1 5.2 1.9 8.7 7.1 7.8 13.1-0.8 4.7-3.6 7.9-8.1 9.5-2 0.7-4.1 1.1-6.2 1.7q-9.2 2.5-18.5 5-8.2 2.2-16.4 4.4c-1.8 0.5-3.6 0.6-5.4 0.2q-3.5-0.8-7-1.6-7.1-1.7-14.3-3.4c-0.8-0.2-1.7-0.4-2.7-0.6 0 0.6 0 1.1 0 1.5q0 23.3 0 46.6c0 0.4 0.1 0.8 0 1.2 0 0.2-0.1 0.5-0.2 0.9q-0.7 0-1.3 0-16.2 0.1-32.4 0.1c-1.4 0-2.8-0.1-4.2-0.1q-11.9 0-23.8 0c-0.6 0-1.1 0-1.7 0-0.1-0.8-0.1-1.4-0.2-2.1-0.4 0.5-0.7 0.9-1 1.3-2.5 3-5.7 4.6-9.6 4.4-5.3-0.2-9.5-3.6-11-8.7q-1.8-6.1-3.6-12.2c-1.2-4.1-2.4-8.2-3.6-12.3q-2.5-8.6-5.1-17.2c-0.5-1.8-0.8-3.5-0.7-5.3 0.5-4.6 3-7.9 7.1-9.8q2.2-1 4.5-2.1 6.3-2.8 12.5-5.6 4.1-1.9 8.2-3.8c0 0 0 0 0.1-0.1-0.4 0-0.7-0.1-1.1-0.2-0.2-0.9-0.5-1.7-0.7-2.6 0.3-0.2 0.5-0.5 0.7-0.6 5.7-1.6 11.3-3.2 16.9-4.6 0.9 0.6 0.6 1.6 1.2 2.2 0.1 0 0.3 0.1 0.4 0.1q5.9 0 11.8 0c0.3 0 0.6 0 0.8-0.1 1.7-0.5 3.4 0.5 5.1 0.2 0 0 0.1 0 0.2 0.1 0.5-0.2 1.1-0.4 1.6-0.4 1.6 0 3.2 0.1 4.8 0.1 2.2 0.1 4.3 0 6.4 0.1 1.5 0 3 0.1 4.5 0.2 0.4 0 0.7 0 1 0 0.4-0.7 0.7-1.2 1-1.8 1.5 0.4 3 0.8 4.4 1.2zm-56.8 31.2c-2.8 1.3-5.5 2.5-8.4 3.8 0.1 0.4 0.1 0.8 0.2 1.2q3.3 11.2 6.5 22.3 0.8 2.6 1.6 5.2 0.1 0 0.1 0c0-10.8 0-21.6 0-32.5zm22.5 0c-0.8-0.6-1.6-0.6-2.5-0.9-0.8-0.3-1.6-0.6-2.5-0.9 0.4-1.8 0.7-3.4 1.1-5.3-1.6 1.1-3 2-4.4 3-1.3-1.2-2.2-2.7-3.5-4.2-0.1 1.1-0.1 1.9-0.2 2.8-0.1 0.8-0.2 1.7-0.3 2.6-1.8 0-3.5 0-5.5 0 1.5 1.4 2.7 2.6 4 3.8-1.1 1.5-2.1 2.7-3.2 4.1 0.9 0.2 1.7-0.1 2.5-0.2 0.9-0.1 1.7-0.2 2.7-0.3 0.7 1.6 0.7 3.4 1.4 5.2 0.9-1.6 1.8-3.1 2.7-4.6 1.7 0.7 3.2 1.5 4.9 2.3-0.7-1.8-1.3-3.4-1.9-5.1 1.6-0.8 3.1-1.5 4.7-2.3zm33-3c0.3-0.8 0.3-3.3 0-4.4-5.8 0-11.5 0-17.4 0-0.3 1.5-0.1 2.8-0.1 4.4 6 0 11.7 0 17.5 0z"/>
				<path id="&lt;Path&gt;" class="s2" d="m762 1111.7q0 1 0 1.9 0 39.1 0 78.1c0 3.4 0.8 6.6 2.9 9.4 3.6 4.7 8.3 7 14.3 6.1 6.5-0.9 10.7-4.7 12.5-10.9 0.5-1.6 0.6-3.2 0.6-4.8q0.1-48.7 0.1-97.4c0-0.5 0-1 0-1.6 1.4-0.1 2.8-0.1 4.3-0.1 0.1 0.6 0.1 1 0.1 1.5q0 20.6 0 41.2c0 19.2 0 38.3 0 57.5 0.1 5.5 2.7 9.7 7.3 12.6 3.7 2.3 7.7 2.9 11.9 1.7 5.4-1.6 9-5.2 10.6-10.7 0.4-1.4 0.4-2.9 0.4-4.3q0-48.7 0-97.5 0-0.8 0-1.6c1.3 0.1 2.4 0.2 3.4 0.2 2.4 0 4.2-1.8 4.2-4.1q0.1-6.1 0-12.1c0-2.2-1.5-4.2-4.3-4.3-2.6-0.1-3.7 0.4-5.2 2.7q-29.5 0-59.2 0c-0.1-0.1-0.2-0.2-0.2-0.3-1.4-2.8-4.8-2.8-6.7-2-1.9 0.7-2.6 2.3-2.6 4.2-0.1 1.6-0.1 3.3-0.1 5q0 3.2 0 6.4c0.1 1.5 0.6 2.8 1.9 3.7q1 0.8 2.2 0.8c0.5 0 1 0 1.5 0 0 4.3 0 8.5 0 12.8z"/>
				<path id="&lt;Path&gt;" class="s2" d="m825.8 933.2q-0.4-2.5-0.7-5.1c1-1.6 2.2-3.2 3.2-4.9q1.2-2 2.2-4.1c0.4-0.7 0.6-1.5 0.7-2.3 0.3-1.3-0.3-2.1-1.7-2.1-1.3-0.1-2.4 0.3-3.5 0.8q-3.3 1.5-6.6 3.1c-3.4 1.7-6.8 3.5-10.3 5.1-4.8 2.3-9.8 4.3-14.9 6-4.6 1.5-9.2 2.8-13.8 4.2-4.8 1.5-9.5 2.8-14.2 4.3-0.9 0.3-1.8 0.7-2.6 1.1-1.2 0.6-1.5 1.4-0.8 2.5 0.6 0.9 1.2 1.7 2 2.4 1.2 1.1 2.6 2 3.8 3 0.2 0.2 0.4 0.3 0.7 0.6 0.1 1.4 0.1 2.9 0.4 4.4 0.2 1.4 0.1 2.9 0.4 4.4 2-0.2 3.8-0.3 5.6-0.5 1.5-0.1 3.1-0.3 4.7-0.4q7.4-0.6 14.8-1.2c1.7-0.2 3.4-0.3 5.2-0.4q4-0.3 8-0.7c1.4-0.1 2.9-0.2 4.3-0.3q5.7-0.5 11.4-0.9 3.5-0.3 7.1-0.6c1.4-0.1 2.7-0.3 4.2-0.4l6.7-0.6c2.1-0.4 4.4-0.4 6.4-1.2 0-0.8-0.5-0.9-0.9-1.1-1.9-1-3.8-2-5.7-2.8-3-1.3-6.1-2.4-9.1-3.6q-0.7-0.3-1.3-0.6c-3.1-1.7-5.1-4.7-5.7-8.1z"/>
				<path id="&lt;Path&gt;" class="s2" d="m828.4 953.9c-1.4 0.1-2.7 0.2-4.1 0.3q-2.4 0.2-4.9 0.4-7.2 0.7-14.4 1.3c-2.5 0.2-4.9 0.3-7.4 0.5q-5.4 0.5-10.9 1c-1.5 0.1-3.1 0.2-4.6 0.3q-4.9 0.4-9.8 0.9c-0.1 0-0.2 0-0.3 0.1-0.3 0.9-0.2 1.9 0 2.8 1 7.4 4.2 13.6 9.9 18.5 3.2 2.7 6.8 4.5 10.8 5.7 1.3 0.4 2.6 0.8 3.9 0.8 1.1 0 2.2 0.3 3.3 0.2 1 0 2.1 0.1 3.2-0.1 2.6-0.3 5.2-0.8 7.6-1.8 6.8-2.8 11.9-7.4 15.2-14 2.1-4.1 3.1-8.5 2.9-13.2 0-0.9 0-1.8-0.1-2.7 0-0.3-0.1-0.6-0.3-1z"/>
			</g>
		</g>
		<g id="&lt;Group&gt;">
			<g id="&lt;Group&gt;">
			</g>
		</g>
		<g id="&lt;Group&gt;">
		</g>
		<g id="&lt;Group&gt;">
		</g>
	</g>
</svg>