<svg version="1.2" xmlns="http://www.w3.org/2000/svg" viewBox="0 0 1920 2160" width="800" height="800">
	<title>2</title>
	<defs>
		<clipPath clipPathUnits="userSpaceOnUse" id="cp1">
			<path d="m1920 2160h-1920v-2160h1920z"/>
		</clipPath>
		<linearGradient id="g1" x2="1" gradientUnits="userSpaceOnUse" gradientTransform="matrix(95.584,0,0,51.254,1013.854,1077.931)">
			<stop offset="0" stop-color="#f600ff"/>
			<stop offset=".2" stop-color="#1e00bf"/>
			<stop offset=".4" stop-color="#006b7f"/>
			<stop offset=".6" stop-color="#00dc3d"/>
			<stop offset=".8" stop-color="#f8f500"/>
			<stop offset="1" stop-color="#d40b00"/>
		</linearGradient>
	</defs>
	<style>
		.s0 { fill: #000000 } 
		.s1 { fill: #ffffff } 
		.s2 { fill: url(#g1);stroke: #ffffff;stroke-linecap: round;stroke-linejoin: round;stroke-width: .9 } 
	</style>
	<g id="Layer 1">
		<g id="&lt;Clip Group&gt;" clip-path="url(#cp1)">
			<g id="&lt;Group&gt;">
			</g>
			<g id="&lt;Group&gt;">
				<g id="2">
					<g id="&lt;Group&gt;">
						<g id="&lt;Group&gt;">
						</g>
					</g>
					<g id="&lt;Group&gt;">
					</g>
				</g>
				<g id="3">
					<g id="&lt;Group&gt;">
					</g>
					<g id="&lt;Group&gt;">
						<g id="&lt;Group&gt;">
						</g>
						<g id="&lt;Group&gt;">
						</g>
					</g>
				</g>
				<g id="&lt;Group&gt;">
				</g>
			</g>
			<path id="&lt;Path&gt;" class="s0" d="m1920 1602h-1920v-1080h1920z"/>
			<g id="&lt;Group&gt;">
			</g>
			<g id="&lt;Group&gt;">
			</g>
			<g id="&lt;Group&gt;">
			</g>
			<g id="&lt;Group&gt;">
				<g id="&lt;Group&gt;">
				</g>
				<g id="&lt;Group&gt;">
				</g>
				<g id="&lt;Group&gt;">
				</g>
			</g>
			<g id="&lt;Group&gt;">
			</g>
		</g>
		<g id="4">
			<g id="&lt;Group&gt;">
				<g id="&lt;Group&gt;">
					<path id="&lt;Compound Path&gt;" class="s1" d="m829 946.5q-0.4-0.8-1-1.7c-1 0.6-1.7 1-2.6 1.6q0.1 0.1 0.1 0.1 0.3 0.6 0.6 1.1h3.6q-0.3-0.5-0.7-1.1zm-16 0.9q-0.4-0.4-0.8-0.9-0.9-0.8-1.6-1.8 0 0 0 0c-1.2-1.4-2.1-3-2.8-4.5l2.2 6.1c0.8 0.3 1.8 0.7 3 1.1zm18.2-17.9c-1.9-0.6-4.2-0.9-6.8-0.7-4.5-5.2-11.4-8.3-17.6-3.1q-1.3 1.1-2.1 2.2-0.5 0.6-0.8 1.2l3.5 9.9c-0.4-1.4-0.5-2.7-0.2-4q0-0.1 0-0.1c0.2-1.4 1-2.8 2.3-4.1 6.1-6.1 12.3-2.3 16 3.5 0.2-1.1 0.3-1.9 0.4-2.6 2-0.1 3.8 0.4 5.3 1.2q0.1 0.1 0.2 0.1 0.2 0.1 0.3 0.2 0.2 0.1 0.4 0.2 0.1 0.1 0.2 0.2v-3.7q-0.5-0.3-1.1-0.4z"/>
					<path id="&lt;Compound Path&gt;" class="s1" d="m831.8 948.8h1.6v-1.3q-0.7 0.7-1.6 1.3zm0.5-18.9q-0.5-0.3-1.1-0.4v3.4q0.1 0.1 0.2 0.1 0.2 0.1 0.3 0.2 0.2 0.1 0.4 0.2 0.1 0.1 0.2 0.2 0.6 0.5 1.1 1.1v-4.4q-0.5-0.2-1.1-0.4zm-19.3 17.5q-0.4-0.4-0.8-0.9h-1l-0.6-1.8q0 0 0 0c-1.2-1.4-2.1-3-2.8-4.5q0-0.1 0-0.1l-0.4-1.1q0 0 0 0c-0.4-1.4-0.5-2.7-0.2-4q0-0.1 0-0.1l-2.5-7q-0.5 0.6-0.8 1.2-0.4 0.8-0.6 1.6l5.3 15.1q0.6 0.2 1.4 0.5c0.8 0.3 1.8 0.7 3 1.1zm16.7 0.2q-0.3-0.5-0.7-1.1h-3.5q0.3 0.6 0.6 1.1 0.3 0.6 0.6 1.2h3.6q-0.3-0.6-0.6-1.2z"/>
				</g>
				<g id="&lt;Group&gt;">
					<path id="&lt;Compound Path&gt;" class="s1" d="m893.2 931.2q-1.7 3.8-3.8 6.8-0.1 1-0.1 2 0 0.8 0.1 1.6 1.3-1.6 2.5-3.3 2.5-3.8 4.3-8.6-0.7 0.2-1.4 0.5-0.9 0.4-1.6 1z"/>
				</g>
			</g>
			<g id="&lt;Group&gt;">
				<path id="&lt;Compound Path&gt;" class="s1" d="m833.4 930.3q-0.5-0.2-1.1-0.4-0.5-0.3-1.1-0.4c-1.9-0.6-4.2-0.9-6.8-0.7-4.5-5.2-11.4-8.3-17.6-3.1q-1.3 1.1-2.1 2.2-0.5 0.6-0.8 1.2-0.4 0.8-0.6 1.6c-1 3.5 0.5 7.1 1 11.2 0.8 6.7-4.9 14 3.6 19.3 4.8 3 12.8 1.7 14.9-3.5 3.9 4.2 7.1 7.7 10.3 11.2 3.1-3-10.4-16-12.9-19-0.9 1-1.5 1.6-2.2 2.3 1.2 1.4 2.2 2.7 3.2 4-7.9 8.1-19.9-3.3-13.8-10.9q0.6 0.3 1.2 0.5 0.6 0.2 1.4 0.5c0.8 0.3 1.8 0.7 3 1.1q-0.4-0.4-0.8-0.9-0.9-0.8-1.6-1.8 0 0 0 0c-1.2-1.4-2.1-3-2.8-4.5q0-0.1 0-0.1l-0.4-1.1q0 0 0 0c-0.4-1.4-0.5-2.7-0.2-4q0-0.1 0-0.1c0.2-1.4 1-2.8 2.3-4.1 6.1-6.1 12.3-2.3 16 3.5 0.2-1.1 0.3-1.9 0.4-2.6 2-0.1 3.8 0.4 5.3 1.2q0.1 0.1 0.2 0.1 0.2 0.1 0.3 0.2 0.2 0.1 0.4 0.2 0.1 0.1 0.2 0.2 0.6 0.5 1.1 1.1c3.3 3.4 3.6 9.2 0 12.8q-0.7 0.7-1.6 1.3-0.6 0.3-1.2 0.5-0.1-0.2-0.3-0.5-0.3-0.6-0.6-1.2-0.3-0.5-0.7-1.1-0.4-0.8-1-1.7c-1 0.6-1.7 1-2.6 1.6q0.1 0.1 0.1 0.1 0.3 0.6 0.6 1.1 0.3 0.6 0.6 1.2c3.1 6 6.1 11.9 9.2 17.9 2.8-1.5-2.6-11.3-3.5-13.7 9.1-6.6 9.6-18.4 1-22.7z"/>
			</g>
			<g id="&lt;Group&gt;">
				<path id="&lt;Compound Path&gt;" fill-rule="evenodd" class="s1" d="m1142.1 1097.1c-3.1 3.1-5 4.7-5.6 8.9-0.9 5.6-1.1 11.3-1.6 16.8q-1.5 16.4-3 32.8c-11.3-1.1-22.1-2.1-33.1-3.2-1.1 16.7-0.3 33.7-0.3 50.5 0 8.8 0.4 17.7 0 26.5-0.3 5.5-1.9 9.9-7.2 12.8q0 0-0.1 0-0.5 0.3-1 0.5c-2 0.1-3.8-0.1-5.8-0.1q-0.1 0-0.1 0c-6.4-2.6-8.8-6.5-8.8-12.4 0.1-25.7 0-51.5 0-77.2 0-1.7 0.3-3.6-3.3-2.9v3.3q0 38.8 0.1 77.5c0 5.3-2.2 8.9-7.4 11.2q-0.7 0.4-1.5 0.7c-1.8-0.1-3.4-0.3-5.2-0.3q-0.1 0-0.2-0.1c-6-2.4-8.5-6.1-8.5-11.9q0.1-34 0-68.1c0-3.8-0.5-7.7-0.6-11.5-0.1-2.7-1.3-3.8-4.5-4-10-0.8-20-1.9-29.9-2.9-5-0.5-9.9-0.9-15.3-1.4v3.9c0 26.9 0 53.8 0.1 80.7 0 6.3-2.1 11-7.7 14.2q-1.1 0.7-2.4 1.2c-2.1 0.1-5 0-7.1 0q-0.6-0.2-1.1-0.4c-6.9-2.8-9.8-7.5-9.8-14.2-0.1-28.3-0.1-56.5-0.1-84.7 0-1.2-0.1-2.3-0.1-3.6-1.6-0.1-2.8-0.1-4.5-0.2v3.6c0 27.8-0.1 55.6 0.1 83.4 0 7.4-2.7 12.6-10.3 15.9q-0.2 0.1-0.3 0.1c-1.4 0.1-2.7 0-4 0q0 0 0 0-1.4 0-2.9 0c-14.6-6-10.6-21.7-10.6-33.2 0-15.6-0.1-31.2 0-46.8q0-6.5-0.1-13.1c0-3.1 1.1-8.1-0.1-10.9-1.5-3.7-6.4-3-10.2-1.9-3.2 0.8-4.7 2.3-8.2 1.3-3.5-1-5.4-3.6-9.3-4.2-7.2-1.2-14.8-1.4-22-2.1-1.1 20.8-0.3 41.9-0.3 62.8 0 10.7 0.5 21.6 0.1 32.3-0.3 7.1-2.8 12.3-10.5 15.4-2.3 0-4.3-0.3-6.6-0.3-8.1-2.8-11.2-7.1-11.2-14.4q0-47.4 0-94.9v-3.7c-1.7-0.2-2.9-0.3-4.6-0.5v3.7c0 31.6-0.1 63.2 0.1 94.8 0 7.5-2.1 12.2-9.9 15.5-1.7 0.8-5.5 0.8-7.9-0.1-9-3.8-10.4-10.2-10.4-18.3 0-10.9 0.1-21.7 0.1-32.6 0-21.8-0.1-43.7-0.1-65.5-11.2-2.6-23.9-2.8-35.5-3.9-4.9-0.4-7.9 0.7-9.8-3-0.5-1.2-0.2-3.3-0.9-4.7-0.6-1.1-1.8-2.3-3.1-3.5-1.5-1.5-2.4-3.5-2.4-5.6v-0.1c0-2 0.7-3.9 2.1-5.3 3.1-3.3 6-6.4 6.8-11 1.3-7.2 1.3-14.8 2-22.1 1.2-13 1.5-26.4 3.8-39.2 7.7 0.7 15.5 1.4 23.2 2.2 7.9 0.9 11.6-1.6 18.9-3.3 6.6-1.5 13.9-0.9 20.6-1 5.8 0 16.2 1.8 21.3-0.5 4.9-2.3 9.8-11.3 12.9-15.2 3.7-4.8 9.7-10.2 10.2-16.1 0.5-6.5-2.1-14.1-3.1-20.6q-1.7-11-3.4-22.1c-0.4-2.7-1.3-6-1.6-9.2q-0.1-0.8-0.1-1.6 0-1 0.1-2c0.2-1.8 0.7-3.4 1.8-4.9q0.9-1.1 2-1.9 0.7-0.6 1.6-1 0.7-0.3 1.4-0.5c2.6-0.7 5.6-0.2 8 1.8 4.7 3.8 4.3 11.7 5.1 16.9q1.5 9.8 3 19.6 1.5 9.8 3 19.6c0.9 5.4 2.7 11 0 16.2-3 5.7-8.5 11-12.6 16.2-4.4 5.7-9 11.3-13.2 17.1 8 0.8 16 1.7 24.1 2.5 6.6 0.6 10.5 2.1 14.8-2.9 10-11.1 20.2-10.5 35.4-10.5 12.9 0 30.2-3.2 40.6 5.4 5.3 4.3 6.9 10 10.9 15 4 5 11.2 4.1 17.9 4.8 3.4-8.4 6.5-13.4 16.1-17.1 8.3-3.2 17.3-4.4 26.2-4.2 2.9 0.1 8-0.6 9.8 1.8 1.8 2.4 0.8 8.5 1.5 11.3 1.6 6.9 5.3 13 13.1 15-8.9-4.9-11.5-13.3-12.1-22.1-0.3-3.6-1.1-7.8 0.1-11.4 1.4-4.6 6.5-8 9.4-11.8 6 7.8 4.4 18.2 4.9 27.2 0.3 6.7 1.7 15 11.1 15.2 0.1 0.4 0.1 0.4 0.3 0.8l-4.1 2.8c0.2 0.3 0.1 0.2 0.3 0.5 2.1-0.6 4.2-1.2 6.5-1.8 0.2 3.6 9.4 3 12.1 3.3 5.8 0.5 11.5-0.7 11.7 5.1 0.3 5.2-1.3 10.7-1.5 16-0.2 4.6 1.5 5.6 4 9.3 1.4 2 0.8 4.2-0.5 5.8zm-8.3-29.4c-112.9-11.2-225.3-22.3-338.1-33.5-2.5 27-4.9 53.8-7.4 81.1 112.9 11.2 225.3 22.3 338.1 33.5 2.5-27.2 4.9-54 7.4-81.1z"/>
				<path id="&lt;Path&gt;" class="s1" d="m916.6 931.7c-2-2.5-1.6-5.8-3.9-8.2-2.8-2.9-6.3-2.1-8.5-5.4h4.9c5.8 2.1 10.3 8.1 7.5 13.6z"/>
				<path id="&lt;Compound Path&gt;" fill-rule="evenodd" class="s1" d="m988.1 1010.5c-4.8 6.2-12.2 10.4-21.7 9.4-14.3-1.4-22.7-14.1-22.9-26-0.1-11.6 7.6-24 21.3-26.4 10.1-1.8 18.1 2.5 23.2 9.1 7.7 9.9 7.8 23.9 0.1 33.9zm-6.4-12.6c-3.3-7.4-13.2 0.4-12.7 7.9 0.4 4.6 3.4 8.6 8.5 5.3 2.9-1.8 4.2-5.2 4.7-8.3 0.3-1.7 0.2-3.4-0.5-4.9z"/>
				<path id="&lt;Compound Path&gt;" fill-rule="evenodd" class="s1" d="m883.3 993c-0.4 13.2-11.2 27.6-27.8 26.1-15-1.4-23.6-15.4-23-27.8 0.6-11.8 9.8-24.1 24.1-25 16.4-0.9 26.4 13.7 26.7 26.7zm-14.3 2.6c-2-2.5-8-2.5-11.2-2.5-3.2 0-9.7 0.1-11.5 3-1.4 2.2-0.1 8.4-0.1 10.9 4.8-3.2 18.4-3.2 23.6 0.1 0-2.7 1.1-9.2-0.8-11.5z"/>
				<path id="&lt;Compound Path&gt;" fill-rule="evenodd" class="s1" d="m1098.2 999.5c-0.3 12.4-9.9 26.1-25.5 25.2-14.3-0.8-23.1-13.4-23-25.2 0-11.3 8.1-23.7 21.7-25.2 16.1-1.7 26.6 12.5 26.8 25.2zm-17.2 2.6c-6.1 0.2-12.2 2.7-15.3 7.5-0.9 1.4-3.2 5.5-0.7 6.8 1.9 0.9 4.9-2 6.3-2.8 2.6-1.4 5.4-2.6 8.5-3.3 2.1-0.5 8.3 0 9.8-1.3 4.8-4-5.5-6.9-8.6-6.9z"/>
				<path id="&lt;Path&gt;" class="s1" d="m1108.8 975.7q-3.6 3-7.2 6.1-0.4-0.1-0.7-0.2c0.8-4.2 7.8-8.6 11-11.7 1.7 1.2 1.7 1.2-0.8 4.1 4.2 7.3 12.3-0.8 10.7-6.5-0.5 0.1-1 0.1-1.4 0.1 2.4-3.4 4.5-7.8 0.6-11-5.1-4.2-9.2-0.8-11.6 3.5q0.2-1.8 0.4-3.6c-7.3-2.9-10.9 8.7-4.9 11.8 0.7-0.9 1.4-1.8 2.1-2.9 0.6 0.4 1.1 0.7 1.9 1.2-3.1 4.5-6.1 8.9-9.1 13.3q-0.4-0.1-0.8-0.1c0.2-3.3 3.1-6.6 4.8-9.5-8.4-5.6-4.5-18.9 7-15.7 3.4-3.2 8.1-5.1 12.3-1.5 5.4 4.7 1 8.6 0.7 13.5-0.2 4.2 1.7 7.7-2.6 11.1-4.2 3.3-9.2 1.6-12.4-2z"/>
				<path id="&lt;Path&gt;" class="s1" d="m832.4 953c0.9 2.4 6.3 12.2 3.5 13.7-3.1-6-6.1-11.9-9.2-17.9q-0.3-0.6-0.6-1.2-0.3-0.5-0.6-1.1 0 0-0.1-0.1c0.9-0.6 1.6-1 2.6-1.6q0.6 0.9 1 1.7 0.4 0.6 0.7 1.1 0.3 0.6 0.6 1.2 0.2 0.3 0.3 0.5 0.6-0.2 1.2-0.5 0.9-0.6 1.6-1.3c3.6-3.6 3.3-9.4 0-12.8q-0.5-0.6-1.1-1.1-0.1-0.1-0.2-0.2-0.2-0.1-0.4-0.2-0.1-0.1-0.3-0.2-0.1 0-0.2-0.1c-1.5-0.8-3.3-1.3-5.3-1.2-0.1 0.7-0.2 1.5-0.4 2.6-3.7-5.8-9.9-9.6-16-3.5-1.3 1.3-2.1 2.7-2.3 4.1q0 0 0 0.1c-0.3 1.3-0.2 2.6 0.2 4q0 0 0 0 0.2 0.6 0.4 1.1 0 0 0 0.1c0.7 1.5 1.6 3.1 2.8 4.5q0 0 0 0 0.7 1 1.6 1.8 0.4 0.5 0.8 0.9c-1.2-0.4-2.2-0.8-3-1.1q-0.8-0.3-1.4-0.5-0.6-0.2-1.2-0.5c-6.1 7.6 5.9 19 13.8 10.9-1-1.3-2-2.6-3.2-4 0.7-0.7 1.3-1.3 2.2-2.3 2.5 3 16 16 12.9 19-3.2-3.5-6.4-7-10.3-11.2-2.1 5.2-10.1 6.5-14.9 3.5-8.5-5.3-2.8-12.6-3.6-19.3-0.5-4.1-2-7.7-1-11.2q0.2-0.8 0.6-1.6 0.3-0.6 0.8-1.2 0.8-1.1 2.1-2.2c6.2-5.2 13.1-2.1 17.6 3.1 2.6-0.2 4.9 0.1 6.8 0.7q0.6 0.1 1.1 0.4 0.6 0.2 1.1 0.4c8.6 4.3 8.1 16.1-1 22.7z"/>
				<path id="&lt;Path&gt;" class="s1" d="m1115.2 1053.1c-8.8-0.7-12.4-6.1-11-16.1 8.4 3.1 8.1 10.2 11 16.1z"/>
				<path id="&lt;Compound Path&gt;" fill-rule="evenodd" class="s1" d="m985 960.1q-0.4-0.3-0.8-0.5c2.1-2.9 6.4-3.8 7.5-7.4 0.9-3.2-3.5-7.8-0.7-9.8 4.7 7 3.4 15-6 17.7zm25.1-10.6c-1.9 3-6.1 4.1-9.7 2.7-4.6-1.7-5.4-6.7-6.6-10.5q0.5-0.3 1-0.5c2.4 2.3 1.9 6 4.7 8.2 3.1 2.3 6.4 1 9.7-0.3q0.4 0.2 0.9 0.4zm-6.8 11.8c-1.3 3.4 1.6 6.9 1.9 10.2q-0.5 0-1-0.1c-6.1-8-3.2-16 7-17.3-1.7 3.2-6.5 3.7-7.9 7.2zm-3 11.4c-2-2.7-1.8-7.4-5.4-9.2-3-1.4-6 0.2-8.6 1.5q-0.5-0.1-0.9-0.3c3.9-9.6 18-0.1 14.9 8z"/>
				<path id="&lt;Path&gt;" class="s1" d="m1057.4 967.2c-6.9-0.8-7.9 4.3-11.6 8.1-1-7.9 6.7-13.6 14.8-9.7q-1.6 0.8-3.2 1.6z"/>
				<path id="&lt;Path&gt;" class="s1" d="m950.4 961.8c-7.7-1.3-7 5.1-11.3 8.1-4.7-6.2 8.9-15.1 14.5-9.7q-1.6 0.8-3.2 1.6z"/>
				<path id="&lt;Path&gt;" class="s1" d="m1058.4 969.3c0.3 0.2 1.2 0.7 2 1.3-1.9 1.1-4.4 1.3-6.1 2.6-1.5 1.2-2.2 3.3-3.7 4.7-1.2-4.7 2.1-8.7 7.8-8.6z"/>
				<path id="&lt;Path&gt;" class="s1" d="m911.6 932.7c-2.1-2-1.8-4.3-4.4-6-1.9-1.3-6-0.8-2.7-3.4 4.8-0.1 11.2 5.7 7.1 9.4z"/>
				<path id="&lt;Path&gt;" class="s1" d="m951.5 963.8c0.3 0.3 1.1 0.8 1.9 1.4-1.9 1.1-4.2 1.2-5.9 2.4-1.6 1.2-2.5 3.4-3.9 4.8-0.9-4.7 2-8.6 7.9-8.6z"/>
			</g>
			<g id="&lt;Group&gt;">
				<path id="&lt;Compound Path&gt;" class="s1" d="m820.3 1069.4c0.1-1.3 1.3-2.3 3.2-2.1 2.2 0.2 4.5 1.1 6.8 2.8l1-10.1c-2-1.2-4.4-2-7.9-2.4-7-0.7-12.5 3.6-13.3 11.2l-0.1 0.5c-0.6 6.1 1.8 9.4 6.9 14.7 2.2 2.3 3.1 3.6 2.9 5v0.1q-0.2 2.5-3.3 2.2c-2.6-0.3-5.3-1.6-7.7-3.5l-1 10c2.2 1.6 5.4 2.9 8.9 3.2 6.6 0.7 12.6-3.6 13.3-11.1l0.1-0.4c0.6-6-1.7-9.3-6.9-14.9-2.2-2.5-3.1-3.6-2.9-5z"/>
				<path id="&lt;Compound Path&gt;" fill-rule="evenodd" class="s1" d="m856.4 1104.4l-10.1-1-0.3-7.3-6.1-0.6-1.8 7-9.8-1 12.4-41.5 11.9 1.2zm-10.7-16.8l-0.6-13.1-3.1 12.8z"/>
				<path id="&lt;Compound Path&gt;" class="s1" d="m872.4 1063.2l-4.5 14.1-1.6-14.7-10.3-1 5.5 28-1.6 15.1 10.1 1.1 1.6-15.2 10.9-26.4z"/>
				<path id="&lt;Compound Path&gt;" class="s1" d="m908.9 1066.9l-1.8 17.4-4.3-18-9.8-1-4.3 42.3 9.8 1 1.8-18.4 4.6 19.1 9.4 0.9 4.3-42.3z"/>
				<path id="&lt;Compound Path&gt;" fill-rule="evenodd" class="s1" d="m945.3 1090.5l-0.3 2.9c-1.4 13.7-7.1 20.1-15.4 19.2-8.2-0.8-12.5-8.1-11.1-21.9l0.3-2.9c1.3-13.6 7.1-20 15.3-19.2 8.2 0.8 12.5 8.3 11.2 21.9zm-12.2-12.6c-1.7-0.2-3 1.4-4 10.8l-0.3 3.3c-1 9.3 0 11.1 1.8 11.3 1.8 0.2 3.1-1.4 4.1-10.8l0.3-3.2c0.9-9.4 0-11.2-1.9-11.4z"/>
				<path id="&lt;Compound Path&gt;" class="s1" d="m958.2 1071.9l-0.9 9.6 5.8 0.6-3.3 32.7 10.1 1 3.3-32.7 5.7 0.6 1-9.6z"/>
				<path id="&lt;Compound Path&gt;" fill-rule="evenodd" class="s1" d="m1004.4 1096.5l-0.3 2.9c-1.4 13.7-7.1 20-15.3 19.2-8.2-0.8-12.6-8.2-11.2-21.9l0.3-2.9c1.4-13.6 7.1-20.1 15.3-19.2 8.3 0.8 12.6 8.3 11.2 21.9zm-12.1-12.6c-1.8-0.2-3.1 1.4-4 10.8l-0.4 3.2c-0.9 9.4 0.1 11.2 1.8 11.4 1.9 0.2 3.2-1.4 4.1-10.8l0.3-3.3c1-9.3 0.1-11.1-1.8-11.3z"/>
				<path id="&lt;Compound Path&gt;" fill-rule="evenodd" class="s2" d="m1098.4 1097.6c-0.1 1.4 0.7 2.6 3 5.1 5.1 5.5 7.4 8.9 6.8 14.9l-0.1 0.4c-0.7 7.4-6.7 11.8-13.3 11.1-3.5-0.3-6.7-1.6-8.9-3.2l1-10c2.4 1.9 5.2 3.2 7.8 3.5q3 0.3 3.2-2.2l0.1-0.2c0.1-1.4-0.8-2.6-3-5-5.1-5.2-7.5-8.5-6.8-14.7v-0.4c0.8-7.7 6.3-11.9 13.4-11.2 3.4 0.3 5.8 1.2 7.8 2.4l-1 10.1c-2.3-1.7-4.6-2.6-6.8-2.8-1.9-0.2-3.1 0.7-3.2 2.1zm-24.7 3.2l12 1.2-2.3 23.1c-3.1 1.3-6.5 2.1-10.2 1.8-8.4-0.9-14.2-8-12.8-21.8l0.3-3c1.3-13.3 9-19.6 17.7-18.7 3.4 0.3 5.7 1.2 7.6 2.6l-1.1 10.1c-1.9-1.6-4.1-2.8-6.5-3-3.8-0.4-6.6 2.4-7.4 9.9l-0.3 3.3c-0.9 8.9 1.3 11.2 3.5 11.4 0.3 0.1 0.5 0 0.7-0.1l0.8-7.7-2.9-0.3zm-14.7 24.1l-10-1-0.4-7.3-6.1-0.6-1.7 7.1-9.8-1 12.3-41.6 11.9 1.2zm-10.7-16.7l-0.6-13.2-3.1 12.8zm-21-19.6l-0.7 6.9 7.8 0.8-0.9 9.4-7.8-0.8-1.7 16.5-10.1-1 4.3-42.4 18.9 1.9-0.9 9.6z"/>
			</g>
			<g id="&lt;Group&gt;">
				<path id="&lt;Path&gt;" class="s1" d="m1074.5 1027.4c3.7 0 7.3-0.8 10.5-2.4q-0.3 1.6-0.4 3.2c-1.7-0.7-3.8-0.8-5.6-0.8q-0.9 0-1.8 0c-0.6 0-1.2 0.1-1.6 0.1q-0.6-0.1-1.1-0.1z"/>
			</g>
			<g id="&lt;Group&gt;">
				<path id="&lt;Path&gt;" class="s1" d="m1104.2 1037c8.4 3.1 8.1 10.2 11 16.1-8.8-0.7-12.4-6.1-11-16.1z"/>
			</g>
		</g>
		<g id="&lt;Group&gt;">
			<g id="&lt;Group&gt;">
			</g>
			<g id="&lt;Group&gt;">
			</g>
			<g id="&lt;Group&gt;">
			</g>
			<g id="&lt;Group&gt;">
			</g>
		</g>
		<g id="&lt;Group&gt;">
			<g id="&lt;Group&gt;">
			</g>
		</g>
		<g id="&lt;Group&gt;">
			<g id="&lt;Group&gt;">
			</g>
		</g>
		<g id="&lt;Group&gt;">
		</g>
		<g id="&lt;Group&gt;">
		</g>
	</g>
</svg>