<?xml version="1.0" standalone="no"?>
<!DOCTYPE svg PUBLIC "-//W3C//DTD SVG 20010904//EN"
 "http://www.w3.org/TR/2001/REC-SVG-20010904/DTD/svg10.dtd">
<svg version="1.0" xmlns="http://www.w3.org/2000/svg"
 width="1140.000000pt" height="87.000000pt" viewBox="0 0 1140.000000 87.000000"
 preserveAspectRatio="xMidYMid meet">
<metadata>
Created by potrace 1.16, written by Peter Selinger 2001-2019
</metadata>
<g transform="translate(0.000000,87.000000) scale(0.100000,-0.100000)"
fill="#000000" stroke="none">
<path d="M10 425 l0 -425 5690 0 5690 0 0 425 0 425 -5690 0 -5690 0 0 -425z
m8770 5 l0 -370 -4360 0 -4360 0 0 370 0 370 4360 0 4360 0 0 -370z m840 0 l0
-370 -395 0 -395 0 0 370 0 370 395 0 395 0 0 -370z m830 0 l0 -370 -390 0
-390 0 0 370 0 370 390 0 390 0 0 -370z m890 0 l0 -370 -420 0 -420 0 0 370 0
370 420 0 420 0 0 -370z"/>
</g>
</svg>
