<?xml version="1.0" standalone="no"?>
<!DOCTYPE svg PUBLIC "-//W3C//DTD SVG 20010904//EN"
 "http://www.w3.org/TR/2001/REC-SVG-20010904/DTD/svg10.dtd">
<svg version="1.0" xmlns="http://www.w3.org/2000/svg"
 width="366.000000pt" height="202.000000pt" viewBox="0 0 366.000000 202.000000"
 preserveAspectRatio="xMidYMid meet">
<metadata>
Created by potrace 1.16, written by Peter Selinger 2001-2019
</metadata>
<g transform="translate(0.000000,202.000000) scale(0.100000,-0.100000)"
fill="#000000" stroke="none">
<path d="M2872 1949 c-61 -31 -87 -71 -87 -139 l0 -55 -35 -5 c-45 -7 -68 -47
-50 -90 7 -16 19 -31 28 -35 13 -5 9 -10 -16 -25 -35 -22 -62 -67 -72 -122 -7
-38 -7 -38 26 -38 26 0 33 5 37 23 l4 22 2 -22 c1 -21 6 -23 65 -23 59 0 65 2
69 23 3 17 5 15 6 -9 0 -16 7 -36 14 -43 6 -7 -2 -5 -19 5 -29 16 -46 17 -312
2 -311 -18 -321 -20 -342 -83 -16 -49 2 -100 43 -121 28 -15 53 -15 245 -5
118 7 216 10 220 7 3 -3 -7 -6 -23 -6 -27 0 -28 -1 -22 -44 16 -116 87 -227
155 -242 15 -3 32 -7 37 -9 15 -4 106 -264 105 -301 0 -17 -13 -116 -30 -220
-38 -243 -39 -267 -1 -305 48 -48 135 -32 160 28 14 34 81 466 81 522 0 39
-62 232 -84 260 -9 12 -8 13 6 8 9 -3 43 -9 76 -13 83 -9 122 12 122 68 0 17
7 29 18 32 47 15 167 187 215 308 32 78 34 135 8 186 -27 53 -54 74 -103 79
-48 5 -108 -24 -108 -52 0 -17 -8 -18 -143 -6 l-97 9 -65 53 c-36 29 -65 55
-65 57 0 2 6 -1 14 -7 11 -9 25 -9 53 -2 108 29 158 160 102 262 -46 83 -148
112 -237 68z m143 -559 c13 -5 74 -12 137 -17 62 -4 101 -9 85 -11 -21 -3 -38
-19 -77 -78 -28 -41 -53 -74 -57 -74 -6 0 -125 97 -171 140 -15 14 -23 22 -18
18 16 -13 24 -9 21 10 -2 9 -6 32 -9 50 l-6 34 36 -32 c20 -17 47 -35 59 -40z"/>
<path d="M3275 1926 c-60 -36 -88 -93 -83 -166 7 -100 74 -163 173 -163 94 0
164 56 180 144 13 72 -31 161 -96 194 -45 24 -127 19 -174 -9z"/>
<path d="M755 1924 c-144 -74 -152 -266 -14 -343 82 -46 203 -16 255 64 61 93
20 230 -80 276 -50 23 -121 24 -161 3z"/>
<path d="M1575 1841 c-103 -46 -142 -170 -85 -268 23 -40 16 -48 -15 -17 -27
27 -47 29 -94 13 -24 -8 -31 -17 -32 -37 -1 -24 -2 -23 -9 8 -9 38 -42 70 -71
70 -24 0 -24 -3 7 -77 29 -67 36 -73 54 -45 6 9 10 11 8 3 -2 -8 -13 -20 -24
-28 -20 -13 -22 -9 -48 57 -16 41 -34 70 -42 70 -18 0 -18 1 7 -54 22 -50 50
-149 44 -155 -2 -2 -7 8 -10 22 -7 25 -8 26 -33 11 -25 -15 -26 -15 -8 0 11 9
21 23 22 32 2 14 -38 120 -50 131 -2 2 -43 -19 -90 -47 -48 -27 -97 -50 -108
-50 -12 0 -45 14 -75 30 -75 42 -78 41 -79 -32 -1 -35 -3 -72 -5 -82 -3 -14 8
-25 45 -44 64 -32 151 -40 194 -18 26 13 32 14 32 3 0 -8 18 -28 39 -45 l39
-31 -15 -43 c-28 -80 -28 -198 1 -358 14 -80 28 -153 30 -162 2 -9 -48 -113
-111 -230 -63 -117 -117 -228 -120 -245 -3 -18 0 -46 7 -63 25 -59 116 -80
164 -37 14 12 82 128 152 257 l127 235 6 88 6 88 58 -75 c31 -41 57 -82 57
-90 0 -9 -27 -98 -60 -199 -35 -107 -60 -202 -60 -226 0 -82 82 -126 160 -86
34 17 41 34 135 332 l67 212 -19 38 c-19 38 -250 345 -264 351 -9 4 52 148 93
220 17 29 35 51 42 48 164 -73 181 -73 309 -2 l98 54 10 -26 c24 -66 32 -81
55 -103 13 -12 27 -19 31 -16 3 4 -7 44 -24 88 -31 80 -31 81 -12 100 25 25
26 90 2 111 -43 37 -69 29 -270 -83 l-41 -24 -40 23 c-22 12 -52 28 -66 36
l-27 13 32 7 c94 18 156 126 130 224 -31 112 -152 170 -256 123z"/>
<path d="M505 1621 c-73 -26 -187 -86 -223 -116 -25 -21 -32 -35 -32 -63 0
-33 8 -45 69 -103 73 -69 192 -154 242 -173 58 -21 115 40 93 101 -6 17 -41
48 -97 87 -48 34 -88 65 -88 71 0 5 37 24 82 41 116 45 145 88 98 148 -25 31
-69 34 -144 7z"/>
<path d="M680 1566 c0 -51 -30 -80 -115 -111 -41 -15 -75 -30 -75 -34 0 -3 37
-31 81 -61 90 -61 99 -73 99 -125 0 -48 -36 -85 -83 -85 -27 0 -59 17 -141 74
l-106 74 -9 -36 c-37 -142 -37 -162 13 -431 l25 -133 -26 -52 c-14 -28 -70
-133 -124 -233 -114 -210 -121 -242 -70 -294 38 -38 107 -41 145 -7 13 13 85
133 158 268 l133 245 5 201 5 200 36 32 c25 22 48 60 74 119 21 49 55 117 75
153 52 89 67 140 50 179 -8 21 -21 32 -43 36 -18 4 -49 18 -69 31 l-38 24 0
-34z"/>
<path d="M638 1046 l-38 -33 0 -90 0 -90 70 -93 c39 -52 69 -99 67 -105 -32
-88 -137 -429 -137 -445 0 -88 113 -134 179 -72 25 22 43 68 110 278 45 138
81 264 81 281 0 24 -31 71 -141 214 -77 101 -143 185 -147 186 -4 1 -24 -13
-44 -31z"/>
</g>
</svg>
